<?xml version="1.0" standalone="no"?>
<!DOCTYPE svg PUBLIC "-//W3C//DTD SVG 20010904//EN"
 "http://www.w3.org/TR/2001/REC-SVG-20010904/DTD/svg10.dtd">
<svg version="1.0" xmlns="http://www.w3.org/2000/svg"
 width="513.000000pt" height="249.000000pt" viewBox="0 0 513.000000 249.000000"
 preserveAspectRatio="xMidYMid meet">

<g transform="translate(0.000000,249.000000) scale(0.100000,-0.100000)"
fill="#000000" stroke="none">
<path d="M490 2022 c-50 -26 -80 -89 -80 -169 l0 -63 44 0 45 0 3 53 3 52 418
3 417 2 0 -55 0 -55 46 0 46 0 -3 79 c-5 90 -22 124 -80 153 -31 16 -73 18
-429 18 -363 0 -398 -1 -430 -18z m560 -52 c0 -6 -48 -10 -124 -10 -73 0 -127
4 -131 10 -4 6 40 10 124 10 81 0 131 -4 131 -10z"/>
<path d="M1737 1543 c20 -65 41 -136 47 -158 11 -36 15 -40 47 -43 l36 -3 29
110 c16 61 31 111 35 111 4 0 19 -50 34 -111 l28 -110 34 3 35 3 49 155 c27
85 49 156 49 158 0 1 -15 2 -34 2 l-34 0 -28 -114 c-15 -63 -30 -113 -34 -111
-3 2 -19 53 -35 114 l-30 111 -32 0 c-36 0 -32 7 -69 -145 -9 -38 -20 -74 -24
-78 -4 -4 -20 43 -36 105 l-29 113 -37 3 -36 3 35 -118z"/>
<path d="M2210 1500 l0 -160 120 0 120 0 0 25 c0 25 -1 25 -85 25 l-85 0 0 45
0 45 75 0 c73 0 75 1 75 25 0 24 -2 25 -75 25 l-75 0 0 40 0 40 80 0 c79 0 80
0 80 25 l0 25 -115 0 -115 0 0 -160z"/>
<path d="M2545 1649 c-39 -11 -55 -34 -55 -80 0 -61 26 -82 104 -87 61 -4 67
-6 73 -30 11 -47 -6 -57 -96 -56 -78 1 -81 0 -81 -22 0 -20 6 -23 55 -29 70
-9 138 1 167 25 19 15 23 28 23 74 0 74 -15 88 -102 95 -68 6 -68 6 -68 36 l0
30 78 0 c72 0 77 1 77 21 0 14 -8 24 -22 28 -33 8 -118 6 -153 -5z"/>
<path d="M2770 1635 c0 -23 3 -25 50 -25 l50 0 0 -135 0 -135 35 0 35 0 0 135
0 135 45 0 c41 0 45 2 45 25 l0 25 -130 0 -130 0 0 -25z"/>
<path d="M3236 1645 c-47 -17 -56 -29 -56 -77 0 -62 33 -85 130 -90 41 -3 45
-5 48 -31 6 -49 -13 -60 -95 -55 -70 5 -73 4 -73 -17 0 -17 7 -24 31 -29 80
-16 169 1 194 37 21 30 19 99 -3 127 -15 19 -32 24 -88 29 -69 6 -69 6 -69 36
l0 30 78 0 c72 0 77 1 77 21 0 14 -8 24 -22 28 -39 10 -111 6 -152 -9z"/>
<path d="M3470 1635 c0 -23 4 -25 45 -25 l45 0 0 -135 0 -135 35 0 35 0 0 135
0 135 50 0 c47 0 50 2 50 25 l0 25 -130 0 -130 0 0 -25z"/>
<path d="M3844 1649 c-55 -16 -69 -41 -73 -135 -5 -128 14 -157 114 -171 58
-7 141 13 160 40 23 33 21 208 -2 235 -34 38 -126 52 -199 31z m134 -51 c8 -8
12 -46 12 -104 0 -102 -1 -104 -71 -104 -73 0 -79 9 -79 110 0 74 3 91 18 99
24 14 105 14 120 -1z"/>
<path d="M4130 1501 l0 -161 35 0 35 0 0 60 c0 56 2 60 23 60 16 0 33 -16 62
-60 37 -55 43 -59 78 -60 20 0 37 2 37 5 0 3 -18 30 -40 60 -45 60 -46 65 -25
65 8 0 24 9 35 20 27 27 28 108 1 141 -17 22 -28 24 -130 27 l-111 4 0 -161z
m185 59 l0 -45 -57 -3 -58 -3 0 51 0 51 58 -3 57 -3 0 -45z"/>
<path d="M4460 1500 l0 -160 115 0 115 0 0 25 c0 25 -1 25 -80 25 l-80 0 0 45
0 45 70 0 c68 0 70 1 70 25 0 24 -2 25 -70 25 l-70 0 0 40 0 40 80 0 c79 0 80
0 80 25 l0 25 -115 0 -115 0 0 -160z"/>
<path d="M1120 1535 l0 -85 30 0 30 0 0 85 0 85 -30 0 -30 0 0 -85z"/>
<path d="M400 1380 l0 -30 510 0 510 0 0 30 0 30 -510 0 -510 0 0 -30z"/>
<path d="M1120 1275 c0 -43 1 -45 30 -45 29 0 30 2 30 45 0 43 -1 45 -30 45
-29 0 -30 -2 -30 -45z"/>
<path d="M650 1140 c0 -25 4 -30 25 -30 21 0 25 5 25 30 0 25 -4 30 -25 30
-21 0 -25 -5 -25 -30z"/>
<path d="M410 747 c0 -191 1 -205 23 -247 41 -81 36 -80 487 -80 435 0 438 0
484 63 19 26 21 44 24 248 l3 219 -45 0 -46 0 0 -69 c0 -54 -4 -70 -16 -75
-20 -8 -788 -8 -808 0 -12 5 -16 21 -16 75 l0 69 -45 0 -45 0 0 -203z m578
-62 c35 -30 45 -69 27 -111 -43 -103 -195 -75 -195 36 0 88 100 133 168 75z"/>
</g>
</svg>
